#!OML:ASF F:\VICON\USERDATA\INSTALL\rory3\rory3.ASF
:FULLY-SPECIFIED
:DEGREES
79
root -10.3478 17.1145 -14.1033 1.91182 5.6622 4.26281
lowerback 6.28036 -0.598595 -5.56789
upperback 0.839267 -1.15131 0.847476
thorax -2.52742 -0.51823 4.10384
lowerneck -15.694 -2.01642 -9.90253
upperneck 21.7692 -1.25413 4.32954
head 9.57698 -0.91277 3.00276
rclavicle 7.60351e-015 -2.14687e-014
rhumerus -36.8752 -16.8662 -75.8095
rradius 31.5335
rwrist 5.9976
rhand -14.2236 12.6645
rfingers 7.12502
rthumb 11.9135 -16.9765
lclavicle 7.60351e-015 -2.14687e-014
lhumerus -33.7819 10.4155 82.5816
lradius 44.7966
lwrist 3.3976
lhand -22.1107 20.1791
lfingers 7.12502
lthumb 4.3019 50.1154
rfemur -33.6719 2.09877 10.2747
rtibia 37.6797
rfoot -9.27049 -7.07495
rtoes -13.3358
lfemur -4.45818 -10.8005 -34.5915
ltibia 32.0542
lfoot -17.747 -6.84801
ltoes 8.81719
80
root -10.341 17.1055 -13.865 2.06226 6.00661 4.26981
lowerback 6.30107 -0.625738 -5.69042
upperback 0.760795 -1.19971 0.827036
thorax -2.61299 -0.536761 4.15706
lowerneck -15.8977 -2.21144 -10.1169
upperneck 22.1196 -1.49612 4.51693
head 9.76204 -1.02777 3.0801
rclavicle 7.60351e-015 -1.59028e-015
rhumerus -37.4048 -17.3342 -75.5314
rradius 31.546
rwrist 6.6217
rhand -13.8866 13.3322
rfingers 7.12502
rthumb 12.2385 -16.2897
lclavicle 7.60351e-015 -1.59028e-015
lhumerus -33.5612 10.2239 82.5168
lradius 45.5357
lwrist 3.76713
lhand -22.0235 19.7258
lfingers 7.12502
lthumb 4.38607 49.6604
rfemur -33.3787 3.40813 9.50849
rtibia 33.7532
rfoot -8.99643 -7.07165
rtoes -15.6501
lfemur -3.45283 -11.0249 -34.6088
ltibia 31.4739
lfoot -17.6961 -7.25182
ltoes 8.65629
81
root -10.3314 17.1015 -13.6218 2.21281 6.45655 4.13981
lowerback 6.23789 -0.670813 -5.57149
upperback 0.778088 -1.24814 0.793495
thorax -2.55746 -0.56428 4.05713
lowerneck -16.1207 -2.43787 -10.3342
upperneck 22.2301 -1.79043 4.75888
head 9.87205 -1.15517 3.16588
rclavicle -7.8023e-015 -5.1684e-015
rhumerus -37.6538 -17.7384 -75.443
rradius 31.0434
rwrist 5.98269
rhand -15.5319 16.8776
rfingers 7.12502
rthumb 10.6517 -12.8324
lclavicle -7.8023e-015 -5.1684e-015
lhumerus -33.0694 10.142 82.414
lradius 45.9949
lwrist 3.9412
lhand -22.2276 19.7787
lfingers 7.12502
lthumb 4.18902 49.7173
rfemur -33.1267 5.02266 8.66227
rtibia 29.8517
rfoot -8.80921 -7.30067
rtoes -16.2574
lfemur -2.35446 -11.3528 -34.4529
ltibia 30.912
lfoot -17.7516 -7.79395
ltoes 9.15542
82
root -10.3206 17.0997 -13.3806 2.27609 7.02417 4.06751
lowerback 6.23252 -0.779393 -5.53489
upperback 0.796929 -1.38992 0.769051
thorax -2.52066 -0.636862 4.02163
lowerneck -16.0167 -2.29962 -9.98277
upperneck 21.8901 -1.65427 4.57901
head 9.71418 -1.07651 3.05506
rclavicle 1.37161e-014 -2.38542e-015
rhumerus -37.9109 -17.7366 -75.5207
rradius 30.7902
rwrist 5.40162
rhand -16.6988 18.5122
rfingers 7.12502
rthumb 9.526 -11.2525
lclavicle 1.37161e-014 -2.38542e-015
lhumerus -32.751 10.1716 82.2495
lradius 46.5004
lwrist 4.18915
lhand -23.0396 21.1483
lfingers 7.12502
lthumb 3.40484 51.1009
rfemur -32.4841 6.21774 7.90107
rtibia 26.2279
rfoot -9.25376 -7.30972
rtoes -16.503
lfemur -1.14538 -11.5892 -34.3498
ltibia 30.3706
lfoot -17.93 -8.36471
ltoes 8.28225
83
root -10.3118 17.0884 -13.1389 2.27247 7.517 4.02308
lowerback 6.23429 -0.877196 -5.54514
upperback 0.782976 -1.52245 0.723972
thorax -2.52253 -0.702544 3.99095
lowerneck -15.6108 -2.14693 -9.59971
upperneck 21.5241 -1.52846 4.36054
head 9.49295 -1.00681 2.924
rclavicle 3.62782e-015 5.96354e-015
rhumerus -38.5254 -18.0205 -75.2649
rradius 31.0769
rwrist 6.6137
rhand -15.4774 15.9241
rfingers 7.12502
rthumb 10.7043 -13.7832
lclavicle 3.62782e-015 5.96354e-015
lhumerus -32.6017 10.1716 82.0342
lradius 46.8687
lwrist 4.35402
lhand -24.7024 22.1616
lfingers 7.12502
lthumb 1.79903 52.1337
rfemur -31.8678 7.52266 7.07156
rtibia 22.8793
rfoot -9.96164 -7.20475
rtoes -15.9956
lfemur 0.0423326 -11.577 -34.2547
ltibia 29.9447
lfoot -18.1963 -8.84953
ltoes 5.87917
84
root -10.3047 17.0729 -12.8971 2.32788 7.84644 4.13529
lowerback 6.18351 -0.881969 -5.75398
upperback 0.761349 -1.54293 0.631926
thorax -2.51136 -0.7109 4.01347
lowerneck -15.4841 -2.17496 -9.46265
upperneck 21.6341 -1.59623 4.27434
head 9.51128 -1.0397 2.86404
rclavicle 1.18774e-014 2.78299e-015
rhumerus -39.3015 -18.9333 -74.5425
rradius 31.5439
rwrist 10.1079
rhand -10.4572 7.87957
rfingers 7.12502
rthumb 15.5434 -21.5158
lclavicle 1.18774e-014 2.78299e-015
lhumerus -32.3275 10.2758 81.8731
lradius 47.0039
lwrist 4.61584
lhand -26.025 21.9469
lfingers 7.12502
lthumb 0.521636 51.926
rfemur -31.4975 8.63415 6.22795
rtibia 20.1583
rfoot -10.3926 -6.82999
rtoes -16.7419
lfemur 1.02442 -11.4326 -34.3087
ltibia 29.6613
lfoot -18.0382 -9.59382
ltoes 5.43043
85
root -10.2905 17.0581 -12.6612 2.37257 8.15612 4.05895
lowerback 6.19873 -0.891475 -5.77407
upperback 0.721928 -1.55908 0.630117
thorax -2.55853 -0.716351 4.02518
lowerneck -15.4124 -2.23531 -9.48054
upperneck 21.73 -1.68595 4.28367
head 9.53897 -1.08413 2.86044
rclavicle 7.15625e-015 1.39149e-014
rhumerus -39.8157 -18.4128 -74.9098
rradius 31.7083
rwrist 7.93383
rhand -11.9963 9.02109
rfingers 7.12502
rthumb 14.0606 -20.4833
lclavicle 7.15625e-015 1.39149e-014
lhumerus -32.1901 10.4008 81.7642
lradius 47.2406
lwrist 5.10736
lhand -26.3452 21.4148
lfingers 7.12502
lthumb 0.212331 51.3944
rfemur -31.3002 9.22765 5.84927
rtibia 17.9782
rfoot -10.5512 -5.86211
rtoes -17.3538
lfemur 1.82084 -11.3767 -34.1962
ltibia 29.5694
lfoot -17.3673 -10.3605
ltoes 6.55366
86
root -10.2719 17.0464 -12.4265 2.37576 8.44739 3.94233
lowerback 6.27294 -0.915226 -5.73806
upperback 0.581619 -1.59615 0.661148
thorax -2.74177 -0.726096 4.04439
lowerneck -15.1567 -2.19173 -9.42193
upperneck 21.853 -1.64819 4.20522
head 9.53044 -1.07477 2.83007
rclavicle 1.07344e-014 -1.59028e-014
rhumerus -40.2832 -18.1935 -74.8972
rradius 31.5456
rwrist 7.16705
rhand -12.4606 8.85427
rfingers 7.12502
rthumb 13.6131 -20.6806
lclavicle 1.07344e-014 -1.59028e-014
lhumerus -32.3488 10.7275 81.6072
lradius 47.495
lwrist 5.39719
lhand -26.2652 21.297
lfingers 7.12502
lthumb 0.289567 51.2766
rfemur -30.8757 9.09968 5.98979
rtibia 16.4418
rfoot -11.0215 -4.20543
rtoes -17.9682
lfemur 2.46081 -11.362 -34.0804
ltibia 29.7708
lfoot -16.6797 -11.0528
ltoes 6.17991
87
root -10.2522 17.0421 -12.1882 2.27243 8.78421 3.85973
lowerback 6.45977 -0.939367 -5.76694
upperback 0.495309 -1.64262 0.72323
thorax -2.92837 -0.74061 4.13577
lowerneck -15.0061 -2.12213 -9.54593
upperneck 21.9526 -1.55006 4.26808
head 9.53147 -1.03539 2.88709
rclavicle 3.67752e-015 -1.03368e-014
rhumerus -40.5585 -18.3725 -74.5655
rradius 31.0032
rwrist 7.42044
rhand -12.4144 8.98529
rfingers 7.12502
rthumb 13.6577 -20.5466
lclavicle 3.67752e-015 -1.03368e-014
lhumerus -32.5485 11.0275 81.504
lradius 47.7677
lwrist 5.72107
lhand -25.9095 21.0581
lfingers 7.12502
lthumb 0.633155 51.0369
rfemur -30.3911 9.06536 6.15099
rtibia 15.5447
rfoot -11.3306 -2.76745
rtoes -18.1605
lfemur 2.98543 -11.3511 -34.0073
ltibia 30.2988
lfoot -15.8852 -11.9229
ltoes 5.03918
88
root -10.2267 17.0364 -11.9553 2.2069 8.79427 3.71646
lowerback 6.52634 -0.861479 -5.67425
upperback 0.479394 -1.53482 0.785022
thorax -2.99513 -0.685312 4.14111
lowerneck -14.8902 -2.06329 -9.64562
upperneck 21.8961 -1.44214 4.22287
head 9.48291 -0.997979 2.9005
rclavicle -1.30204e-014 7.95139e-016
rhumerus -40.8081 -18.6501 -74.2464
rradius 30.6231
rwrist 7.70887
rhand -12.2914 9.78335
rfingers 7.12502
rthumb 13.7762 -19.7405
lclavicle -1.30204e-014 7.95139e-016
lhumerus -32.5765 11.2411 81.5068
lradius 47.9567
lwrist 6.19568
lhand -25.6016 21.2233
lfingers 7.12502
lthumb 0.930488 51.2011
rfemur -30.2171 8.56888 6.71814
rtibia 15.4125
rfoot -11.2748 -0.735707
rtoes -19.6263
lfemur 3.24527 -11.2164 -33.9412
ltibia 31.1413
lfoot -14.8874 -12.5923
ltoes 5.38226
89
root -10.198 17.0152 -11.7289 2.14737 8.4333 3.58665
lowerback 6.54869 -0.681947 -5.52677
upperback 0.499934 -1.28575 0.787536
thorax -3.01747 -0.563024 4.03967
lowerneck -15.0944 -2.03111 -9.72108
upperneck 22.1724 -1.34867 4.18792
head 9.61228 -0.968622 2.91738
rclavicle -7.25564e-015 -4.77083e-015
rhumerus -40.8722 -18.8007 -74.1094
rradius 30.0727
rwrist 7.71222
rhand -12.2928 9.76486
rfingers 7.12502
rthumb 13.7748 -19.7591
lclavicle -7.25564e-015 -4.77083e-015
lhumerus -32.3906 11.5772 81.4363
lradius 47.7969
lwrist 6.58402
lhand -25.1578 20.7621
lfingers 7.12502
lthumb 1.35916 50.7375
rfemur -30.2804 7.87103 7.48072
rtibia 15.8897
rfoot -11.1162 1.78059
rtoes -21.4096
lfemur 3.36695 -10.7937 -33.928
ltibia 32.2708
lfoot -13.3805 -13.1269
ltoes 6.80706
90
root -10.1738 17.0009 -11.4973 2.0891 8.37023 3.318
lowerback 6.71745 -0.540103 -5.26748
upperback 0.499082 -1.08522 0.85417
thorax -3.13837 -0.462602 3.94894
lowerneck -15.6169 -2.094 -9.83655
upperneck 22.6049 -1.34784 4.17253
head 9.86605 -0.984811 2.93925
rclavicle -1.53561e-014 -6.75868e-015
rhumerus -41.0085 -19.0119 -73.8799
rradius 29.6693
rwrist 7.64375
rhand -12.5931 9.4113
rfingers 7.12502
rthumb 13.4854 -20.1321
lclavicle -1.53561e-014 -6.75868e-015
lhumerus -32.238 12.1149 81.3799
lradius 47.4594
lwrist 6.14521
lhand -24.5026 20.3284
lfingers 7.12502
lthumb 1.99194 50.2989
rfemur -30.301 7.5855 8.16324
rtibia 16.8833
rfoot -10.7575 3.86461
rtoes -21.2112
lfemur 3.43835 -10.5636 -33.6766
ltibia 33.6251
lfoot -11.2838 -13.6793
ltoes 9.11718
91
root -10.1542 16.9962 -11.2599 1.94022 8.69743 3.27744
lowerback 7.06734 -0.556658 -5.35079
upperback 0.480913 -1.1307 0.942431
thorax -3.34527 -0.476785 4.09988
lowerneck -15.9219 -2.10046 -9.89272
upperneck 22.8097 -1.26766 4.01083
head 9.99193 -0.9733 2.90536
rclavicle 6.80837e-015 5.96354e-015
rhumerus -41.1552 -18.9254 -73.6855
rradius 29.3533
rwrist 7.6071
rhand -12.7886 9.57899
rfingers 7.12502
rthumb 13.297 -19.9768
lclavicle 6.80837e-015 5.96354e-015
lhumerus -32.4638 12.526 81.3777
lradius 47.4207
lwrist 6.08752
lhand -24.422 20.5381
lfingers 7.12502
lthumb 2.06976 50.5078
rfemur -30.1255 7.56924 8.33918
rtibia 18.3307
rfoot -9.5538 5.65636
rtoes -20.9654
lfemur 3.50353 -10.5463 -33.6168
ltibia 35.1554
lfoot -9.76514 -14.1871
ltoes 6.98324
92
root -10.1304 16.9907 -11.0172 1.63725 9.07551 3.23496
lowerback 7.35187 -0.585996 -5.45226
upperback 0.502822 -1.18891 1.06867
thorax -3.47092 -0.499869 4.3009
lowerneck -15.8407 -2.05671 -9.96492
upperneck 22.8771 -1.13179 3.76324
head 9.99191 -0.94716 2.84806
rclavicle -1.82385e-014 -2.38542e-015
rhumerus -41.3689 -19.0607 -73.2399
rradius 28.8841
rwrist 7.9542
rhand -12.8411 11.2142
rfingers 7.12502
rthumb 13.2464 -18.3449
lclavicle -1.82385e-014 -2.38542e-015
lhumerus -32.8267 12.9471 81.479
lradius 47.4076
lwrist 6.38024
lhand -24.4232 20.9884
lfingers 7.12502
lthumb 2.06868 50.9581
rfemur -29.8832 7.99176 8.28156
rtibia 20.0175
rfoot -7.3888 7.03977
rtoes -18.4851
lfemur 3.51316 -10.4329 -33.539
ltibia 36.8899
lfoot -8.1628 -14.8929
ltoes 2.93699
